<?xml version="1.0" encoding="utf-8"?>
<svg version="1.1" xmlns="http://www.w3.org/2000/svg" xmlns:xlink="http://www.w3.org/1999/xlink" x="0px" y="0px"
	 viewBox="0 0 500 500" style="enable-background:new 0 0 500 500;" xml:space="preserve">
<g id="OBJECTS">
	<g>
		<path style="fill:#FF9933;" d="M88.915,151.155c0,0-17.639,4.654-18.314,9.157c-0.675,4.504,2.627,5.329,2.627,5.329
			s-4.428-0.6-4.278,2.852c0.15,3.453,3.828,6.83,9.457,8.482c5.629,1.651,19.515,1.801,21.767,6.305c0,0,2.552-3.002,12.31-3.603
			c9.757-0.6,14.245-5.822,14.245-5.822s3.168-4.423,2.268-6.637c-0.901-2.214-4.353-1.539-4.353-1.539s3.002-1.689,2.552-5.967
			c-0.45-4.278-18.464-8.932-18.464-8.932L88.915,151.155z"/>
		<path style="fill:#FF9933;" d="M89.474,165.994l-2.21,1.449l-39.631,20.641c0,0-6.855,17.463-8.557,36.478h124.896
			c0,0-4.003-31.224-10.308-36.128c-6.305-4.904-40.581-21.216-40.581-21.216L89.474,165.994z"/>
		<path style="fill:#F77D2B;" d="M89.065,154.458c0,0-11.859,0.676-7.131,12.572c0,0,7.867,4.286,15.93,11.494h3.967
			c0,0,3.896-0.898,8.7-5.202c4.049-3.627,7.591-6.97,8.986-8.133c0.288-0.24,0.265-0.7-0.06-0.888
			c-0.525-0.304-1.362-0.561-2.396-0.086c0,0,2.327-0.901,2.064-3.528c-0.263-2.627-6.38-5.667-9.945-5.554
			C105.615,155.246,89.065,154.458,89.065,154.458z"/>
		<path style="fill:#F6B994;" d="M87.864,147.703l1.651,18.764l-2.252,0.976c0,0,10.883,10.508,12.46,13.661
			c0,0,8.407-10.658,13.36-13.886l-3.603-2.402v-17.488L87.864,147.703z"/>
		<path style="fill:#F38B82;" d="M109.481,157.764v-10.437l-21.617,0.375l0.473,5.37C90.882,155.964,97.959,162.09,109.481,157.764z
			"/>
		<path style="fill:#F6B994;" d="M132.921,114.677c0,0,5.613-3.787,7.656,3.978c2.428,9.232-9.607,22.893-18.614,19.59
			L132.921,114.677z"/>
		<path style="fill:#F38B82;" d="M135.938,121.211c0,0,1.449-0.454,2.05,1.648s-3.255,6.267-5.718,6.23
			C132.269,129.088,131.036,123.654,135.938,121.211z"/>
		<path style="fill:none;stroke:#D1937D;stroke-linecap:round;stroke-linejoin:round;stroke-miterlimit:10;" d="M137.199,120.482
			c0,0-5.004,2.202-5.004,7.105"/>
		<path style="fill:none;stroke:#D1937D;stroke-linecap:round;stroke-linejoin:round;stroke-miterlimit:10;" d="M137.199,123.434
			c0,0-3.355,1.043-4.93,3.148"/>
		<path style="fill:#F6B994;" d="M65.122,114.677c0,0-5.613-3.787-7.656,3.978c-2.428,9.232,9.607,22.893,18.614,19.59
			L65.122,114.677z"/>
		<path style="fill:#F6B994;" d="M64.196,112.776c0,0,3.254,33.113,32.457,39.818c1.456,0.334,2.964,0.393,4.437,0.148
			c6.819-1.136,26.071-7.111,31.659-38.489l-10.308-34.101H70.719L64.196,112.776z"/>
		<path style="fill:#F38B82;" d="M93.593,128.032c0,0,1.426,1.107,4.379,1.107c1.501,0,2.704-0.286,3.525-0.567
			c0.509-0.174,0.953,0.359,0.697,0.832c-0.593,1.092-1.781,2.438-4.034,2.438C94.369,131.84,93.593,128.032,93.593,128.032z"/>
		<path style="fill:none;stroke:#D1937D;stroke-width:0.75;stroke-linecap:round;stroke-linejoin:round;stroke-miterlimit:10;" d="
			M64.196,112.776c0,0,3.102,32.625,33.776,40.116c0,0,27.947,0,34.777-38.64"/>
		<path style="fill:#5B3C48;" d="M72.702,96.163c0,0,2.402,4.804-8.607,19.215c0,0-2.752-10.909,0-20.216c0,0-5.404,0-6.605-6.305
			c0,0,0.876-1.126,3.503-0.6c0,0-4.729-0.075-5.704-5.854c-0.74-4.382,0.333-8.679,0.895-10.499
			c0.126-0.408,0.631-0.535,0.948-0.247c1.304,1.186,4.615,3.469,10.092,2.565c0,0-0.901-3.302,0.751-5.93
			c0,0,7.831,2.552,12.234,0.851c4.403-1.701,17.113-8.056,28.672,0.35l-2.327-4.954c0,0,9.883-1.401,12.885,9.607
			c0,0,7.105-1.701,12.209,7.706c5.104,9.407,3.603,12.309,5.504,13.21c0,0-1.551,1.226-3.578-0.35c0,0,2.552,11.784,0.901,19.515
			l-2.252,1.651c0,0-7.581-17.113-9.783-19.515c0,0-7.406-1.651-9.958-6.755C112.483,89.608,104.377,96.513,72.702,96.163z"/>
		<path style="fill:#442A34;" d="M70.701,94.862c-0.819,0.637-1.699,0.984-2.417,1.174c-0.808,0.213-1.637-0.257-1.885-1.055
			l-0.277-0.892c-0.197-0.635-0.833-1.049-1.487-0.928c-2.594,0.479-5.087-0.197-5.283-0.281c2.011,2.271,4.743,2.283,4.743,2.283
			c-2.752,9.307,0,20.216,0,20.216c11.008-14.411,8.607-19.215,8.607-19.215C72.102,95.362,70.701,94.862,70.701,94.862z"/>
		<path style="fill:#442A34;" d="M134.475,114.227c1.366-6.395-0.143-15.556-0.706-18.534c-0.982-0.474-1.95-1.313-2.685-2.049
			c-0.646-0.647-1.713-0.633-2.331,0.042c-2.488,2.715-6.312,2.678-6.312,2.678c2.202,2.402,9.783,19.515,9.783,19.515
			L134.475,114.227z"/>
		<path style="fill:none;stroke:#2D1A22;stroke-width:0.75;stroke-linecap:round;stroke-linejoin:round;stroke-miterlimit:10;" d="
			M119.576,95.53c1.758,0.798,3.864,1.406,6.342,1.584"/>
		<path style="fill:none;stroke:#2D1A22;stroke-width:0.75;stroke-linecap:round;stroke-linejoin:round;stroke-miterlimit:10;" d="
			M70.719,96.144c1.001,0.021,2.626,0.043,4.685,0.023"/>
		<path style="fill:#442A34;" d="M76.681,103.343c0,0,7.356-3.903,12.535,0.375l-0.189-0.73c-0.088-0.339-0.3-0.628-0.6-0.809
			C86.849,101.23,81.569,98.665,76.681,103.343z"/>
		<path style="fill:#442A34;" d="M86.013,114.252c0,1.644-0.896,2.977-2.002,2.977c-1.105,0-2.002-1.333-2.002-2.977
			c0-1.644,0.896-2.977,2.002-2.977C85.117,111.275,86.013,112.607,86.013,114.252z"/>
		<path style="fill:#442A34;" d="M118.838,103.343c0,0-7.356-3.903-12.535,0.375l0.189-0.73c0.088-0.339,0.3-0.628,0.6-0.809
			C108.669,101.23,113.949,98.665,118.838,103.343z"/>
		<path style="fill:#442A34;" d="M109.506,114.252c0,1.644,0.896,2.977,2.002,2.977c1.105,0,2.002-1.333,2.002-2.977
			c0-1.644-0.896-2.977-2.002-2.977C110.402,111.275,109.506,112.607,109.506,114.252z"/>
		<path style="fill:none;stroke:#D1937D;stroke-width:1.2;stroke-linecap:round;stroke-linejoin:round;stroke-miterlimit:10;" d="
			M97.972,116.479c0,0-4.553,7.656-4.553,10.458c0,2.802,3.152,4.153,3.152,4.153"/>
		<path style="fill:none;stroke:#D1937D;stroke-width:1.2;stroke-linecap:round;stroke-linejoin:round;stroke-miterlimit:10;" d="
			M89.891,135.393c0,0,1.977,4.353,8.081,4.203c6.105-0.15,9.482-4.203,9.482-4.203"/>
		<path style="fill:#F38B82;" d="M62.105,121.211c0,0-1.449-0.454-2.05,1.648c-0.6,2.102,3.255,6.267,5.718,6.23
			C65.773,129.088,67.007,123.654,62.105,121.211z"/>
		<path style="fill:none;stroke:#D1937D;stroke-linecap:round;stroke-linejoin:round;stroke-miterlimit:10;" d="M60.843,120.482
			c0,0,5.004,2.202,5.004,7.105"/>
		<path style="fill:none;stroke:#D1937D;stroke-linecap:round;stroke-linejoin:round;stroke-miterlimit:10;" d="M60.843,123.434
			c0,0,3.355,1.043,4.93,3.148"/>
		<path style="fill:#F77D2B;" d="M71.623,165.662c3.016,3.508,9.396,5.033,9.396,5.033s0.39-0.925-2.863-2.376
			c-2.574-1.148-6.109-4.231-7.477-5.471c0.588,2.294,2.548,2.794,2.548,2.794S72.487,165.545,71.623,165.662z"/>
		<path style="fill:#F77D2B;" d="M125.243,166.717c0,0-5.354,6.005-9.507,6.655c0,0,2.823-3.023,7.005-5.279
			C123.531,167.667,123.967,167.568,125.243,166.717z"/>
		<path style="fill:#F77D2B;" d="M93.593,179.695c-8.221-0.583-17.102-3.684-20.271-4.991l-3.193,1.663
			c3.826,1.477,13.08,4.925,17.135,5.337C92.443,182.229,93.593,179.695,93.593,179.695z"/>
		<path style="fill:#F77D2B;" d="M131.402,176.184c-1.589-0.798-3.16-1.58-4.672-2.328l-0.001,0c0,0-9.215,4.589-16.588,6.328
			c-0.385,0.091-0.326,0.655,0.069,0.652C115.842,180.8,126.707,180.184,131.402,176.184z"/>
		<path style="fill:#F77D2B;" d="M59.792,224.562l-3.302-23.418c0,0,8.707,21.617,15.162,23.418H59.792z"/>
		
			<line style="fill:none;stroke:#E06C1E;stroke-width:0.75;stroke-linecap:round;stroke-linejoin:round;stroke-miterlimit:10;" x1="56.49" y1="201.144" x2="59.792" y2="224.562"/>
		<path style="fill:#F77D2B;" d="M143.607,224.562l3.303-23.418c0,0-8.707,21.617-15.162,23.418H143.607z"/>
		
			<line style="fill:none;stroke:#E06C1E;stroke-width:0.75;stroke-linecap:round;stroke-linejoin:round;stroke-miterlimit:10;" x1="146.91" y1="201.144" x2="143.607" y2="224.562"/>
		<path style="fill:none;stroke:#E06C1E;stroke-width:0.75;stroke-linecap:round;stroke-linejoin:round;stroke-miterlimit:10;" d="
			M94.544,180.053c0,0-9.908,0-21.222-5.349"/>
		<path style="fill:none;stroke:#E06C1E;stroke-width:0.75;stroke-linecap:round;stroke-linejoin:round;stroke-miterlimit:10;" d="
			M106.253,180.653c0,0,11.827-0.836,20.475-6.798"/>
		<path style="fill:none;stroke:#E06C1E;stroke-width:0.75;stroke-linecap:round;stroke-linejoin:round;stroke-miterlimit:10;" d="
			M81.861,164.215c0,0,4.002,0.2,17.862,16.888c0,0,12.31-14.887,18.214-16.888"/>
		<path style="fill:none;stroke:#FFFFFF;stroke-width:0.75;stroke-linecap:round;stroke-linejoin:round;stroke-miterlimit:10;" d="
			M95.12,184.331c0,0-3.503,5.104-5.004,19.815"/>
		<path style="fill:none;stroke:#FFFFFF;stroke-width:0.75;stroke-linecap:round;stroke-linejoin:round;stroke-miterlimit:10;" d="
			M105.628,184.331c0,0,3.303,11.859,3.353,19.815"/>
		<path style="fill:#FFFFFF;" d="M89.453,207.218l-0.155-0.038c-0.712-0.176-1.146-0.895-0.971-1.607l0.227-0.92
			c0.176-0.712,0.895-1.146,1.607-0.971l0.155,0.038c0.712,0.176,1.146,0.895,0.971,1.607l-0.227,0.92
			C90.885,206.959,90.165,207.394,89.453,207.218z"/>
		<path style="fill:#FFFFFF;" d="M109.62,206.989l-0.157,0.026c-0.723,0.12-1.407-0.37-1.526-1.093l-0.155-0.935
			c-0.12-0.723,0.37-1.407,1.093-1.526l0.157-0.026c0.723-0.12,1.407,0.37,1.526,1.093l0.155,0.935
			C110.833,206.186,110.344,206.869,109.62,206.989z"/>
	</g>
</g>
</svg>
